ffmpeg started on 2025-06-30 at 14:44:48
Report written to "D:\Convert\FFMetrics\reports\psnr_report-6.txt"
Log level: 32
Command line:
ffmpeg -hide_banner -nostdin -i "G:\\\xc0\xed\xe8\xec\xe5\\\xce\xed\xe3\xee\xe8\xed\xe3\xe8\\!_37_\xc7\xe8\xec\xe0_2025\\JamClub\\\xc3\xee\xf1\xef\xee\xe4\xe8\xed \xe8 \xef\xb8\xf1\\JamClub_Tono_to_Inu_Woof_Woof!_S01E14_1080p_HEVC.mkv" -i "G:\\\xc0\xed\xe8\xec\xe5\\\xce\xed\xe3\xee\xe8\xed\xe3\xe8\\!_37_\xc7\xe8\xec\xe0_2025\\JamClub\\\xc3\xee\xf1\xef\xee\xe4\xe8\xed \xe8 \xef\xb8\xf1\\JamClub_Tono_to_Inu_Woof_Woof!_S01E14_1080p.mp4" -lavfi "[0:v]settb=AVTB,setpts=PTS-STARTPTS,format=pix_fmts=yuv420p10,fps=24000/1001,scale=1920:1080:flags=bicubic[main];[1:v]settb=AVTB,setpts=PTS-STARTPTS,format=pix_fmts=yuv420p,fps=24000/1001,scale=1920:1080:flags=bicubic[ref];[main][ref]psnr=eof_action=endall:stats_file='D\\:/Convert/FFMetrics/logs/psnr_logfile-6.txt'" -f null -
Input #0, matroska,webm, from 'G:\Аниме\Онгоинги\!_37_Зима_2025\JamClub\Господин и пёс\JamClub_Tono_to_Inu_Woof_Woof!_S01E14_1080p_HEVC.mkv':
  Metadata:
    COMPATIBLE_BRANDS: isomiso2avc1mp41
    MAJOR_BRAND     : isom
    MINOR_VERSION   : 512
    ENCODER         : Lavf61.7.100
  Duration: 00:02:57.22, start: -0.021000, bitrate: 1902 kb/s
  Stream #0:0: Video: hevc (Main 10), yuv420p10le(tv, bt709, progressive), 1920x1080 [SAR 1:1 DAR 16:9], 23.98 fps, 23.98 tbr, 1k tbn (default)
      Metadata:
        HANDLER_NAME    : VideoHandler
        VENDOR_ID       : [0][0][0][0]
        ENCODER         : Lavc61.19.100 libx265
        BPS             : 1705760
        DURATION        : 00:02:57.051708333
        NUMBER_OF_FRAMES: 4245
        NUMBER_OF_BYTES : 37750835
        _STATISTICS_WRITING_APP: mkvpropedit v66.0.0 ('Josie') 64-bit
        _STATISTICS_WRITING_DATE_UTC: 2025-06-28 16:05:28
        _STATISTICS_TAGS: BPS DURATION NUMBER_OF_FRAMES NUMBER_OF_BYTES
  Stream #0:1(eng): Audio: aac (LC), 48000 Hz, stereo, fltp (default)
      Metadata:
        HANDLER_NAME    : SoundHandler
        VENDOR_ID       : [0][0][0][0]
        ENCODER         : Lavc61.19.100 aac
        BPS             : 193613
        DURATION        : 00:02:57.197000000
        NUMBER_OF_FRAMES: 8307
        NUMBER_OF_BYTES : 4288474
        _STATISTICS_WRITING_APP: mkvpropedit v66.0.0 ('Josie') 64-bit
        _STATISTICS_WRITING_DATE_UTC: 2025-06-28 16:05:28
        _STATISTICS_TAGS: BPS DURATION NUMBER_OF_FRAMES NUMBER_OF_BYTES
Input #1, mov,mp4,m4a,3gp,3g2,mj2, from 'G:\Аниме\Онгоинги\!_37_Зима_2025\JamClub\Господин и пёс\JamClub_Tono_to_Inu_Woof_Woof!_S01E14_1080p.mp4':
  Metadata:
    major_brand     : isom
    minor_version   : 512
    compatible_brands: isomiso2avc1mp41
    encoder         : Lavf60.16.100
  Duration: 00:02:57.20, start: 0.000000, bitrate: 5036 kb/s
  Stream #1:0[0x1](und): Video: h264 (High) (avc1 / 0x31637661), yuv420p(tv, bt709, progressive), 1920x1080 [SAR 1:1 DAR 16:9], 4841 kb/s, 23.98 fps, 23.98 tbr, 90k tbn (default)
      Metadata:
        handler_name    : VideoHandler
        vendor_id       : [0][0][0][0]
  Stream #1:1[0x2](eng): Audio: aac (LC) (mp4a / 0x6134706D), 48000 Hz, stereo, fltp, 191 kb/s (default)
      Metadata:
        handler_name    : SoundHandler
        vendor_id       : [0][0][0][0]
Stream mapping:
  Stream #0:0 (hevc) -> settb:default
  Stream #1:0 (h264) -> settb:default
  psnr:default -> Stream #0:0 (wrapped_avframe)
  Stream #0:1 -> #0:1 (aac (native) -> pcm_s16le (native))
Output #0, null, to 'pipe:':
  Metadata:
    COMPATIBLE_BRANDS: isomiso2avc1mp41
    MAJOR_BRAND     : isom
    MINOR_VERSION   : 512
    encoder         : Lavf61.7.100
  Stream #0:0: Video: wrapped_avframe, yuv420p10le(tv, bt709, progressive), 1920x1080 [SAR 1:1 DAR 16:9], q=2-31, 200 kb/s, 23.98 fps, 23.98 tbn
      Metadata:
        encoder         : Lavc61.19.100 wrapped_avframe
  Stream #0:1(eng): Audio: pcm_s16le, 48000 Hz, stereo, s16, 1536 kb/s (default)
      Metadata:
        HANDLER_NAME    : SoundHandler
        VENDOR_ID       : [0][0][0][0]
        _STATISTICS_TAGS: BPS DURATION NUMBER_OF_FRAMES NUMBER_OF_BYTES
        BPS             : 193613
        DURATION        : 00:02:57.197000000
        NUMBER_OF_FRAMES: 8307
        NUMBER_OF_BYTES : 4288474
        _STATISTICS_WRITING_APP: mkvpropedit v66.0.0 ('Josie') 64-bit
        _STATISTICS_WRITING_DATE_UTC: 2025-06-28 16:05:28
        encoder         : Lavc61.19.100 pcm_s16le
frame=  118 fps=0.0 q=-0.0 size=N/A time=00:00:04.92 bitrate=N/A speed=9.57x    frame=  284 fps=273 q=-0.0 size=N/A time=00:00:11.84 bitrate=N/A speed=11.4x    frame=  484 fps=313 q=-0.0 size=N/A time=00:00:20.18 bitrate=N/A speed=  13x    frame=  726 fps=353 q=-0.0 size=N/A time=00:00:30.28 bitrate=N/A speed=14.7x    frame=  940 fps=364 q=-0.0 size=N/A time=00:00:39.20 bitrate=N/A speed=15.2x    frame= 1197 fps=387 q=-0.0 size=N/A time=00:00:49.92 bitrate=N/A speed=16.1x    frame= 1446 fps=399 q=-0.0 size=N/A time=00:01:00.31 bitrate=N/A speed=16.7x    frame= 1694 fps=410 q=-0.0 size=N/A time=00:01:10.65 bitrate=N/A speed=17.1x    frame= 1942 fps=418 q=-0.0 size=N/A time=00:01:20.99 bitrate=N/A speed=17.4x    frame= 2153 fps=418 q=-0.0 size=N/A time=00:01:29.79 bitrate=N/A speed=17.4x    frame= 2357 fps=415 q=-0.0 size=N/A time=00:01:38.30 bitrate=N/A speed=17.3x    frame= 2571 fps=415 q=-0.0 size=N/A time=00:01:47.23 bitrate=N/A speed=17.3x    frame= 2812 fps=420 q=-0.0 size=N/A time=00:01:57.28 bitrate=N/A speed=17.5x    frame= 3018 fps=418 q=-0.0 size=N/A time=00:02:05.87 bitrate=N/A speed=17.4x    frame= 3195 fps=413 q=-0.0 size=N/A time=00:02:13.25 bitrate=N/A speed=17.2x    frame= 3424 fps=415 q=-0.0 size=N/A time=00:02:22.80 bitrate=N/A speed=17.3x    frame= 3605 fps=411 q=-0.0 size=N/A time=00:02:30.35 bitrate=N/A speed=17.1x    frame= 3807 fps=410 q=-0.0 size=N/A time=00:02:38.82 bitrate=N/A speed=17.1x    frame= 4015 fps=409 q=-0.0 size=N/A time=00:02:47.45 bitrate=N/A speed=17.1x    [Parsed_psnr_10 @ 000001c8097c8800] PSNR y:46.774363 u:49.079867 v:50.227041 average:47.531850 min:37.690439 max:inf
[out#0/null @ 000001c8090deec0] video:1824KiB audio:33228KiB subtitle:0KiB other streams:0KiB global headers:0KiB muxing overhead: unknown
frame= 4245 fps=413 q=-0.0 Lsize=N/A time=00:02:57.05 bitrate=N/A speed=17.2x    
